<svg id="Capa_1" enable-background="new 0 0 510.982 510.982" height="512" viewBox="0 0 510.982 510.982" width="512" xmlns="http://www.w3.org/2000/svg"><g><g><path d="m172.434 280.971c0 45.871 37.186 83.057 83.057 83.057l16.993-79.744-16.993-137.331c0 .001-83.057 68.061-83.057 134.018z" fill="#df5b5b"/><g><path d="m255.491 146.954v217.075c45.871 0 83.058-37.186 83.058-83.057 0-65.958-83.058-134.018-83.058-134.018z" fill="#c30048"/></g></g><g><path d="m102.074 85.179c-40.979 40.979-63.547 95.464-63.547 153.417h30c0-103.092 83.872-186.964 186.964-186.964l6.191-14.727-6.191-15.273c-57.953 0-112.438 22.568-153.417 63.547z" fill="#1E1E20"/><path d="m73.864 316.891 30.372 21.428 17.294-24.514-71.258-50.271-50.272 71.256 24.514 17.295 20.104-28.496c23.106 95.507 109.309 165.762 210.874 165.762l6.191-15.133-6.191-14.867c-87.395 0-161.588-60.356-181.628-142.46z" fill="#000"/></g><path d="m437.118 194.092-30.372-21.428-17.294 24.514 71.258 50.271 50.273-71.257-24.514-17.295-20.104 28.496c-23.106-95.506-109.308-165.761-210.874-165.761v30c87.394 0 161.587 60.355 181.627 142.46z" fill="#000"/><path d="m255.491 459.351v30c57.954 0 112.438-22.568 153.417-63.547s63.547-95.464 63.547-153.417h-30c.001 103.092-83.872 186.964-186.964 186.964z" fill="#1E1E20"/></g></svg>